<mxfile host="app.diagrams.net" agent="Mozilla/5.0 (Macintosh; Intel Mac OS X 10_15_7) AppleWebKit/537.36 (KHTML, like Gecko) Chrome/132.0.0.0 Safari/537.36" version="25.0.1">
  <diagram name="Page-1" id="Tv8OXh-J_D7vxYsQkESJ">
    <mxGraphModel dx="1706" dy="726" grid="0" gridSize="10" guides="1" tooltips="1" connect="1" arrows="1" fold="1" page="0" pageScale="1" pageWidth="827" pageHeight="1169" math="0" shadow="0">
      <root>
        <mxCell id="0" />
        <mxCell id="1" parent="0" />
        <mxCell id="ajJxxP_tnbdznKNpBEiU-10" value="" style="edgeStyle=orthogonalEdgeStyle;rounded=0;orthogonalLoop=1;jettySize=auto;html=1;" parent="1" source="ajJxxP_tnbdznKNpBEiU-1" target="ajJxxP_tnbdznKNpBEiU-9" edge="1">
          <mxGeometry relative="1" as="geometry" />
        </mxCell>
        <mxCell id="ajJxxP_tnbdznKNpBEiU-1" value="ExecutorAllocationManager removeExecutors" style="rounded=1;whiteSpace=wrap;html=1;" parent="1" vertex="1">
          <mxGeometry x="27" y="163" width="152" height="59" as="geometry" />
        </mxCell>
        <mxCell id="ajJxxP_tnbdznKNpBEiU-2" value="&lt;font style=&quot;font-size: 21px;&quot;&gt;Executor idle timeout&lt;/font&gt;" style="text;html=1;strokeColor=none;fillColor=none;align=center;verticalAlign=middle;whiteSpace=wrap;rounded=0;" parent="1" vertex="1">
          <mxGeometry x="196.25" y="81" width="235.5" height="30" as="geometry" />
        </mxCell>
        <mxCell id="ajJxxP_tnbdznKNpBEiU-5" value="" style="edgeStyle=orthogonalEdgeStyle;rounded=0;orthogonalLoop=1;jettySize=auto;html=1;shape=flexArrow;endArrow=none;endFill=0;startArrow=block;dashed=1;" parent="1" source="ajJxxP_tnbdznKNpBEiU-3" target="ajJxxP_tnbdznKNpBEiU-4" edge="1">
          <mxGeometry relative="1" as="geometry" />
        </mxCell>
        <mxCell id="ajJxxP_tnbdznKNpBEiU-3" value="ExecutorMonitor&lt;br&gt;(TrackTimeout)" style="rounded=1;whiteSpace=wrap;html=1;" parent="1" vertex="1">
          <mxGeometry x="448" y="163" width="120" height="60" as="geometry" />
        </mxCell>
        <mxCell id="ajJxxP_tnbdznKNpBEiU-6" value="" style="edgeStyle=orthogonalEdgeStyle;rounded=0;orthogonalLoop=1;jettySize=auto;html=1;" parent="1" source="ajJxxP_tnbdznKNpBEiU-4" target="ajJxxP_tnbdznKNpBEiU-1" edge="1">
          <mxGeometry relative="1" as="geometry" />
        </mxCell>
        <mxCell id="ajJxxP_tnbdznKNpBEiU-4" value="ExecutorAllocationManager&lt;br&gt;(schedule)" style="rounded=1;whiteSpace=wrap;html=1;" parent="1" vertex="1">
          <mxGeometry x="236" y="161.5" width="156" height="63" as="geometry" />
        </mxCell>
        <mxCell id="ajJxxP_tnbdznKNpBEiU-12" value="" style="edgeStyle=orthogonalEdgeStyle;rounded=0;orthogonalLoop=1;jettySize=auto;html=1;" parent="1" source="ajJxxP_tnbdznKNpBEiU-9" target="ajJxxP_tnbdznKNpBEiU-11" edge="1">
          <mxGeometry relative="1" as="geometry" />
        </mxCell>
        <mxCell id="ajJxxP_tnbdznKNpBEiU-9" value="ExecutorAllocationClient/ScheduleBackend&lt;br&gt;KillExecutor" style="whiteSpace=wrap;html=1;rounded=1;" parent="1" vertex="1">
          <mxGeometry x="-21.5" y="306" width="249" height="56" as="geometry" />
        </mxCell>
        <mxCell id="ajJxxP_tnbdznKNpBEiU-14" value="" style="edgeStyle=orthogonalEdgeStyle;rounded=0;orthogonalLoop=1;jettySize=auto;html=1;endArrow=classic;endFill=1;startArrow=classic;startFill=1;" parent="1" source="ajJxxP_tnbdznKNpBEiU-11" target="ajJxxP_tnbdznKNpBEiU-13" edge="1">
          <mxGeometry relative="1" as="geometry" />
        </mxCell>
        <mxCell id="ajJxxP_tnbdznKNpBEiU-15" value="heartbeat" style="edgeLabel;html=1;align=center;verticalAlign=middle;resizable=0;points=[];" parent="ajJxxP_tnbdznKNpBEiU-14" vertex="1" connectable="0">
          <mxGeometry x="-0.025" y="2" relative="1" as="geometry">
            <mxPoint as="offset" />
          </mxGeometry>
        </mxCell>
        <mxCell id="ajJxxP_tnbdznKNpBEiU-11" value="ApplicationMaster&lt;br&gt;KillExecutor" style="whiteSpace=wrap;html=1;rounded=1;" parent="1" vertex="1">
          <mxGeometry x="283" y="304" width="120" height="60" as="geometry" />
        </mxCell>
        <mxCell id="ajJxxP_tnbdznKNpBEiU-17" value="" style="edgeStyle=orthogonalEdgeStyle;rounded=0;orthogonalLoop=1;jettySize=auto;html=1;" parent="1" source="ajJxxP_tnbdznKNpBEiU-13" target="ajJxxP_tnbdznKNpBEiU-16" edge="1">
          <mxGeometry relative="1" as="geometry" />
        </mxCell>
        <mxCell id="ajJxxP_tnbdznKNpBEiU-13" value="YarnDriverEndpoint&lt;br&gt;(handle removeExecutor event)" style="whiteSpace=wrap;html=1;rounded=1;" parent="1" vertex="1">
          <mxGeometry x="269.5" y="444" width="147" height="60" as="geometry" />
        </mxCell>
        <mxCell id="ajJxxP_tnbdznKNpBEiU-16" value="YarnDriverEndpoint&lt;br&gt;(send ExecutorLost)" style="whiteSpace=wrap;html=1;rounded=1;" parent="1" vertex="1">
          <mxGeometry x="283" y="584" width="120" height="60" as="geometry" />
        </mxCell>
        <mxCell id="ajJxxP_tnbdznKNpBEiU-21" style="edgeStyle=orthogonalEdgeStyle;rounded=0;orthogonalLoop=1;jettySize=auto;html=1;entryX=0;entryY=0.5;entryDx=0;entryDy=0;exitX=0.5;exitY=0;exitDx=0;exitDy=0;" parent="1" source="ajJxxP_tnbdznKNpBEiU-18" target="ajJxxP_tnbdznKNpBEiU-16" edge="1">
          <mxGeometry relative="1" as="geometry" />
        </mxCell>
        <mxCell id="ajJxxP_tnbdznKNpBEiU-18" value="TaskScheduler" style="rounded=1;whiteSpace=wrap;html=1;" parent="1" vertex="1">
          <mxGeometry x="27" y="691" width="120" height="60" as="geometry" />
        </mxCell>
        <mxCell id="ajJxxP_tnbdznKNpBEiU-22" style="edgeStyle=orthogonalEdgeStyle;rounded=0;orthogonalLoop=1;jettySize=auto;html=1;entryX=0.5;entryY=1;entryDx=0;entryDy=0;exitX=1;exitY=0.5;exitDx=0;exitDy=0;" parent="1" source="ajJxxP_tnbdznKNpBEiU-19" target="ajJxxP_tnbdznKNpBEiU-16" edge="1">
          <mxGeometry relative="1" as="geometry" />
        </mxCell>
        <mxCell id="ajJxxP_tnbdznKNpBEiU-19" value="DagScheduler" style="rounded=1;whiteSpace=wrap;html=1;" parent="1" vertex="1">
          <mxGeometry x="203" y="689" width="120" height="60" as="geometry" />
        </mxCell>
        <mxCell id="ajJxxP_tnbdznKNpBEiU-23" style="edgeStyle=orthogonalEdgeStyle;rounded=0;orthogonalLoop=1;jettySize=auto;html=1;entryX=1;entryY=0.5;entryDx=0;entryDy=0;" parent="1" source="ajJxxP_tnbdznKNpBEiU-20" target="ajJxxP_tnbdznKNpBEiU-16" edge="1">
          <mxGeometry relative="1" as="geometry" />
        </mxCell>
        <mxCell id="ajJxxP_tnbdznKNpBEiU-20" value="BlockManagerMasterEndpoint" style="rounded=1;whiteSpace=wrap;html=1;" parent="1" vertex="1">
          <mxGeometry x="397" y="691" width="171" height="65" as="geometry" />
        </mxCell>
        <UserObject label="&lt;b style=&quot;font-weight:normal;&quot; id=&quot;docs-internal-guid-c5a85b01-7fff-0291-5bad-55b852f47b1c&quot;&gt;&lt;img width=&quot;806px;&quot; height=&quot;470px;&quot; src=&quot;https://lh7-rt.googleusercontent.com/slidesz/AGV_vUdsr_0wYVEIryytL2JDbu2MMGHDNleMNRVZFnXkotWqKzKeBR3QyL9-QKdcPW6SHM8JJ0UOdnsQ-iOv4Ks7nr0vdfLzwxh_FlYLQ70zCcGyntcgpQLEAm7PEwuYVzXZZlbYtnQ=nw?key=D_S-flqe0mUyhY7Bwj5Padbz&quot;&gt;&lt;/b&gt;" link="&lt;b style=&quot;font-weight:normal;&quot; id=&quot;docs-internal-guid-c5a85b01-7fff-0291-5bad-55b852f47b1c&quot;&gt;&lt;img width=&quot;806px;&quot; height=&quot;470px;&quot; src=&quot;https://lh7-rt.googleusercontent.com/slidesz/AGV_vUdsr_0wYVEIryytL2JDbu2MMGHDNleMNRVZFnXkotWqKzKeBR3QyL9-QKdcPW6SHM8JJ0UOdnsQ-iOv4Ks7nr0vdfLzwxh_FlYLQ70zCcGyntcgpQLEAm7PEwuYVzXZZlbYtnQ=nw?key=D_S-flqe0mUyhY7Bwj5Padbz&quot;&gt;&lt;/b&gt;" id="IbXfdusuzxS3YJ9X-35f-1">
          <mxCell style="text;whiteSpace=wrap;html=1;" vertex="1" parent="1">
            <mxGeometry x="18" y="943.5" width="550" height="495" as="geometry" />
          </mxCell>
        </UserObject>
        <mxCell id="IbXfdusuzxS3YJ9X-35f-2" value="" style="rounded=0;whiteSpace=wrap;html=1;" vertex="1" parent="1">
          <mxGeometry x="-117" y="1560" width="175" height="329" as="geometry" />
        </mxCell>
        <mxCell id="IbXfdusuzxS3YJ9X-35f-4" value="" style="endArrow=none;html=1;rounded=0;entryX=0.994;entryY=0.354;entryDx=0;entryDy=0;entryPerimeter=0;" edge="1" parent="1">
          <mxGeometry width="50" height="50" relative="1" as="geometry">
            <mxPoint x="-119" y="1771" as="sourcePoint" />
            <mxPoint x="55.950000000000045" y="1771.1019999999999" as="targetPoint" />
          </mxGeometry>
        </mxCell>
        <mxCell id="IbXfdusuzxS3YJ9X-35f-5" value="" style="endArrow=none;html=1;rounded=0;entryX=0.994;entryY=0.354;entryDx=0;entryDy=0;entryPerimeter=0;" edge="1" parent="1">
          <mxGeometry width="50" height="50" relative="1" as="geometry">
            <mxPoint x="-117" y="1837" as="sourcePoint" />
            <mxPoint x="57.950000000000045" y="1837.1019999999999" as="targetPoint" />
          </mxGeometry>
        </mxCell>
        <mxCell id="IbXfdusuzxS3YJ9X-35f-6" value="Spark Memory" style="text;html=1;align=center;verticalAlign=middle;whiteSpace=wrap;rounded=0;" vertex="1" parent="1">
          <mxGeometry x="-81.5" y="1632" width="104" height="30" as="geometry" />
        </mxCell>
        <mxCell id="IbXfdusuzxS3YJ9X-35f-7" value="spark.memory.fraction=0.75" style="text;html=1;align=center;verticalAlign=middle;whiteSpace=wrap;rounded=0;" vertex="1" parent="1">
          <mxGeometry x="-59.5" y="1665" width="60" height="30" as="geometry" />
        </mxCell>
        <mxCell id="IbXfdusuzxS3YJ9X-35f-8" value="User Memory" style="text;html=1;align=center;verticalAlign=middle;whiteSpace=wrap;rounded=0;" vertex="1" parent="1">
          <mxGeometry x="-84.5" y="1785" width="110" height="30" as="geometry" />
        </mxCell>
        <mxCell id="IbXfdusuzxS3YJ9X-35f-9" value="300M" style="text;html=1;align=center;verticalAlign=middle;whiteSpace=wrap;rounded=0;" vertex="1" parent="1">
          <mxGeometry x="-59" y="1849" width="60" height="30" as="geometry" />
        </mxCell>
        <mxCell id="IbXfdusuzxS3YJ9X-35f-10" value="" style="strokeWidth=2;html=1;shape=mxgraph.flowchart.annotation_2;align=left;labelPosition=right;pointerEvents=1;" vertex="1" parent="1">
          <mxGeometry x="-181" y="1556" width="50" height="342" as="geometry" />
        </mxCell>
        <mxCell id="IbXfdusuzxS3YJ9X-35f-11" value="Java On-heap Memory&lt;div&gt;spark.executor.memory&lt;/div&gt;" style="text;html=1;align=center;verticalAlign=middle;whiteSpace=wrap;rounded=0;" vertex="1" parent="1">
          <mxGeometry x="-335" y="1712" width="140" height="30" as="geometry" />
        </mxCell>
        <mxCell id="IbXfdusuzxS3YJ9X-35f-12" value="Off-heap Memory" style="rounded=0;whiteSpace=wrap;html=1;" vertex="1" parent="1">
          <mxGeometry x="-117" y="1478" width="174" height="60" as="geometry" />
        </mxCell>
        <mxCell id="IbXfdusuzxS3YJ9X-35f-13" value="spark.memory.offHeap.size" style="text;html=1;align=center;verticalAlign=middle;whiteSpace=wrap;rounded=0;" vertex="1" parent="1">
          <mxGeometry x="-295" y="1493" width="60" height="30" as="geometry" />
        </mxCell>
        <mxCell id="IbXfdusuzxS3YJ9X-35f-14" value="" style="rounded=0;whiteSpace=wrap;html=1;" vertex="1" parent="1">
          <mxGeometry x="501" y="1610" width="175" height="270" as="geometry" />
        </mxCell>
        <mxCell id="IbXfdusuzxS3YJ9X-35f-15" value="" style="endArrow=none;html=1;rounded=0;entryX=0.994;entryY=0.354;entryDx=0;entryDy=0;entryPerimeter=0;" edge="1" parent="1">
          <mxGeometry width="50" height="50" relative="1" as="geometry">
            <mxPoint x="499" y="1762" as="sourcePoint" />
            <mxPoint x="673.95" y="1762.1019999999999" as="targetPoint" />
          </mxGeometry>
        </mxCell>
        <mxCell id="IbXfdusuzxS3YJ9X-35f-16" value="" style="endArrow=none;html=1;rounded=0;entryX=0.994;entryY=0.354;entryDx=0;entryDy=0;entryPerimeter=0;" edge="1" parent="1">
          <mxGeometry width="50" height="50" relative="1" as="geometry">
            <mxPoint x="501" y="1828" as="sourcePoint" />
            <mxPoint x="675.95" y="1828.1019999999999" as="targetPoint" />
          </mxGeometry>
        </mxCell>
        <mxCell id="IbXfdusuzxS3YJ9X-35f-17" value="Spark Memory" style="text;html=1;align=center;verticalAlign=middle;whiteSpace=wrap;rounded=0;" vertex="1" parent="1">
          <mxGeometry x="536.5" y="1656" width="104" height="30" as="geometry" />
        </mxCell>
        <mxCell id="IbXfdusuzxS3YJ9X-35f-18" value="spark.memory.fraction=0.75" style="text;html=1;align=center;verticalAlign=middle;whiteSpace=wrap;rounded=0;" vertex="1" parent="1">
          <mxGeometry x="559" y="1678" width="60" height="30" as="geometry" />
        </mxCell>
        <mxCell id="IbXfdusuzxS3YJ9X-35f-19" value="User Memory" style="text;html=1;align=center;verticalAlign=middle;whiteSpace=wrap;rounded=0;" vertex="1" parent="1">
          <mxGeometry x="533.5" y="1776" width="110" height="30" as="geometry" />
        </mxCell>
        <mxCell id="IbXfdusuzxS3YJ9X-35f-20" value="300M" style="text;html=1;align=center;verticalAlign=middle;whiteSpace=wrap;rounded=0;" vertex="1" parent="1">
          <mxGeometry x="559" y="1840" width="60" height="30" as="geometry" />
        </mxCell>
        <mxCell id="IbXfdusuzxS3YJ9X-35f-21" value="" style="strokeWidth=2;html=1;shape=mxgraph.flowchart.annotation_2;align=left;labelPosition=right;pointerEvents=1;" vertex="1" parent="1">
          <mxGeometry x="437" y="1461" width="50" height="428" as="geometry" />
        </mxCell>
        <mxCell id="IbXfdusuzxS3YJ9X-35f-22" value="&lt;div&gt;spark.executor.memory&lt;/div&gt;" style="text;html=1;align=center;verticalAlign=middle;whiteSpace=wrap;rounded=0;" vertex="1" parent="1">
          <mxGeometry x="289" y="1660" width="140" height="30" as="geometry" />
        </mxCell>
        <mxCell id="IbXfdusuzxS3YJ9X-35f-23" value="Off-heap Memory" style="rounded=0;whiteSpace=wrap;html=1;" vertex="1" parent="1">
          <mxGeometry x="501" y="1491" width="175" height="120" as="geometry" />
        </mxCell>
        <mxCell id="IbXfdusuzxS3YJ9X-35f-25" value="spark.gluten.memory.dynamic.&lt;div&gt;offHeap.sizing.memory.fraction&lt;/div&gt;" style="text;html=1;align=center;verticalAlign=middle;whiteSpace=wrap;rounded=0;" vertex="1" parent="1">
          <mxGeometry x="559" y="1568" width="60" height="30" as="geometry" />
        </mxCell>
      </root>
    </mxGraphModel>
  </diagram>
</mxfile>
